<svg xmlns="http://www.w3.org/2000/svg" xmlns:v="https://vecta.io/nano" width="536" height="168" viewBox="0 0 536 168" preserveAspectRatio="xMidYMid meet">
    <path d="M261.86 7.64l55.89 74.4-2.06 3.4-55.89-74.4 2.06-3.4h0zM154.21 39.47c0-19.32 15.72-35.04 35.04-35.04h62.31l2.25-3.7h-64.55c-21.36 0-38.74 17.38-38.74 38.74s17.38 38.74 38.74 38.74h17.48l2.25-3.7h-19.73c-19.32 0-35.04-15.72-35.04-35.04h-.01zm101.46-21.63l18.05 24.03h-32.61l-2.27 3.7h37.66l2.78 3.69h-42.66l-2.24 3.7h47.68l2.78 3.69h-52.71l-2.22 3.7h57.71l10.64 14.15h-76.98l-2.27 3.7h82.02l2.78 3.69h-87.02l-2.24 3.7h92.04l2.78 3.69H212.3l-2.22 3.7 55.95 74.31 2.03-3.44-28.37-37.66h4.63l25.84 34.3 2.03-3.44-23.26-30.86h4.71l20.64 27.5 2.03-3.44-18.08-24.06h32.5l2.27-3.7h-56.1l-22.23-29.51h4.63l19.45 25.81h56.52l2.27-3.7h-56.97L223.9 92.98h4.81l13.85 18.42h57.25l2.27-3.7h-57.73l-11.06-14.72h77.85l.45-.75h0l2.06-3.4-55.89-74.4-2.06 3.4-.03.01zm-6.35-9.73h-60c-17.29 0-31.36 14.07-31.36 31.36s14.07 31.36 31.36 31.36h21.9l2.25-3.7h-24.14c-15.25 0-27.66-12.41-27.66-27.66s12.41-27.66 27.66-27.66h57.75l2.25-3.7h-.01zm-60.24 11.1h53.49l2.25-3.7h-55.74c-13.01 0-23.59 10.75-23.59 23.95s10.58 23.95 23.59 23.95h26.64l2.25-3.7h-28.88c-10.97 0-19.89-9.09-19.89-20.25s8.92-20.25 19.89-20.25h-.01zm-42.16 11.26c0-16.43-13.37-29.8-29.8-29.8H43.69l2.77 3.7h70.66c14.39 0 26.1 11.71 26.1 26.1 0 12.02-8.07 22.44-19.65 25.41l-2.51-3.35a22.43 22.43 0 0 0 17.85-21.98c0-12.39-10.05-22.48-22.41-22.48H49.23l2.77 3.7h64.51c10.32 0 18.71 8.42 18.71 18.78 0 9.63-7.23 17.61-16.65 18.64l-2.69-3.6c8.29-.02 15.03-6.77 15.03-15.06s-6.76-15.06-15.06-15.06H54.77l2.77 3.7h58.31c6.27 0 11.36 5.1 11.36 11.36a11.38 11.38 0 0 1-11.36 11.36h-2.74v-.02h-4.63l27.19 36.34h4.62l-14.34-19.17c12.43-3.86 20.99-15.37 20.99-28.57h-.02zM26.11 18.01l17.92 23.86H11.41l-2.27 3.7H46.8l2.78 3.69H6.92l-2.24 3.7h47.68l2.78 3.69H2.43l-2.22 3.7h57.71L71.34 78.2h4.62L28.17 14.6 26.11 18v.01zm295.77 57.22L265.99.83l-2.06 3.4 55.89 74.4 2.06-3.4h0zM30.19 10.93l50.43 67.28h4.62L32.26 7.53l-2.06 3.4h-.01zm69.05 30.95l27.19 36.34h4.62l-27.19-36.34h-4.62zm-9.39 0l27.3 36.34h4.62l-27.3-36.34h-4.62zM34.32 4.13l55.54 74.09h4.62L36.38.73l-2.06 3.4h0zM335.25 93v74.31h3.7V93h-3.7zm110.41-7.39h82.84l2.27-3.7h-82.84l-2.27 3.7zM320.46 93v74.31h3.7V93h-3.7zm132-18.48l-2.27 3.7h82.84l2.27-3.7h-82.84zM441.12 93v26.67h0v47.63h37.73l2.27-3.69h-36.29V126.2h3.69v33.71h34.66l2.27-3.7h-33.23v-30.02h3.69v26.32h31.9l2.27-3.7h-30.46v-22.62h44.2l2.27-3.7h-61.25V92.98h3.69v25.81h59.82l2.27-3.7h-58.39V92.98h3.69v18.35l-.06.06h56.88l2.27-3.7h-55.39V92.97h64.35l2.27-3.7H443.4l-2.27 3.7-.01.03zm-113.27 0v74.31h3.7V93h-3.7zm40.79-53.53c0-13.21-10.58-23.95-23.59-23.95h-54.24l2.78 3.7h51.46c10.97 0 19.89 9.09 19.89 20.25s-8.92 20.25-19.89 20.25h-21.03l2.78 3.7h18.26c13.01 0 23.59-10.75 23.59-23.95h-.01zm7.53 0c0-17.29-14.07-31.36-31.36-31.36h-59.56l2.78 3.7h56.78c15.25 0 27.66 12.41 27.66 27.66s-12.41 27.66-27.66 27.66h-15.23l2.78 3.7h12.45c17.29 0 31.36-14.07 31.36-31.36h0zm-11.98 76.26l38.87 51.57h4.62l-38.87-51.57h-4.62zm9.39 0l38.76 51.57h4.62l-38.76-51.57h-4.62 0zM482.06 8.06h-79.19l-2.27 3.7h79.19l2.27-3.7zm4.48-7.39H407.4l-2.27 3.7h79.14l2.27-3.7zm-76.09 77.54a30.05 30.05 0 0 1 5.74 4.12l-.13-.43h21.13l-2.27 3.7h-15.66c4.14 5.12 6.63 11.63 6.63 18.71 0 13.77-9.29 25.71-22.59 29.04-.07.01-1.23.25-2.28.44l25.18 33.51h-4.62l-38.76-51.57h13.2c6.27 0 11.36-5.1 11.36-11.36a11.38 11.38 0 0 0-11.36-11.36h-47l-2.78-3.7h49.77a15.08 15.08 0 0 1 15.06 15.06c0 8.3-6.76 15.06-15.06 15.06h-5.81l2.81 3.73h3.1c10.32 0 18.71-8.42 18.71-18.78s-8.39-18.78-18.71-18.78h-52.65l-2.78-3.7h55.43c12.36 0 22.41 10.08 22.41 22.48s-10.05 22.47-22.41 22.47h-.32l2.67 3.56c.31-.02.71-.06 1.15-.13 1.1-.18 2.85-.54 2.86-.54 11.57-2.9 19.71-13.37 19.71-25.44 0-14.39-11.71-26.1-26.1-26.1h-58.17l-2.78-3.7h9.76c19.32 0 35.04-15.72 35.04-35.04S364.21 4.42 344.89 4.42h-62.4l-2.78-3.7h65.18c21.36 0 38.74 17.38 38.74 38.74 0 15.46-9.11 28.83-22.24 35.04h34.69V52h0V19.14l2.26-3.7h79.23l-2.27 3.7h-60.74v15.33h51.46l-2.27 3.7h-49.94l-2.94.1V19.14h-3.7v22.72h54.29l-2.27 3.7h-52.01v.08h-3.7v-26.5h-3.7v30.12h57.24l-2.27 3.7h-40.18v14.16h31.52l-2.27 3.7h-32.87v-.02l-.07.02V52.96h-3.7v21.55h34.52l-2.27 3.7h-28.96-.02zm-3.28-1.96v.41c.12.05.24.09.35.14l-.35-.55zm-7.39-23.28h0v21.78c1.26.16 2.5.38 3.7.69V52.97h-3.7z" fill="#000"></path>
</svg>